<svg xmlns="http://www.w3.org/2000/svg" width="16" height="16" viewBox="0 0 16 16"><path style="line-height:normal;text-indent:0;text-align:start;text-decoration-line:none;text-decoration-style:solid;text-decoration-color:#000;text-transform:none;block-progression:tb;white-space:normal;isolation:auto;mix-blend-mode:normal;solid-color:#000;solid-opacity:1" fill-rule="evenodd" d="M 9.984375 3 A 1.0000877 1.0000877 0 0 0 9 4.015625 L 9 10 C 9 10.5714 8.5712547 11 8 11 C 7.4287484 11 7 10.5714 7 10 A 1.0000877 1.0000877 0 0 0 5.984375 8.9882812 A 1.0000877 1.0000877 0 0 0 5 10 C 5 11.6448 6.3553308 13 8 13 C 9.5612075 13 10.84664 11.774965 10.974609 10.244141 A 1.0000877 1.0000877 0 0 0 11 10.015625 L 11 10 L 11 4.015625 A 1.0000877 1.0000877 0 0 0 9.984375 3 z " color="#000" enable-background="accumulate" font-family="sans-serif" font-weight="400" overflow="visible"/></svg>