<svg xmlns="http://www.w3.org/2000/svg" xmlns:xlink="http://www.w3.org/1999/xlink" viewBox="0 0 65 66" fill="#fff" fill-rule="evenodd" stroke="#000" stroke-linecap="round" stroke-linejoin="round"><use xlink:href="#A" x=".5" y=".5"/><symbol id="A" overflow="visible"><path d="M3.774 51.734A3.78 3.78 0 0 1 0 47.952v-10.65a3.78 3.78 0 0 1 3.774-3.782 3.79 3.79 0 0 1 3.776 3.782v10.654a3.78 3.78 0 0 1-3.776 3.782zm12.148 4.085c-2.086 0-3.774-1.693-3.774-3.782V33.223c0-2.09 1.688-3.782 3.774-3.782a3.78 3.78 0 0 1 3.776 3.782v18.814a3.78 3.78 0 0 1-3.776 3.782zm12.148 3.994c-2.086 0-3.774-1.693-3.774-3.782V29.207a3.78 3.78 0 0 1 3.774-3.782 3.78 3.78 0 0 1 3.774 3.782v26.82c0 2.09-1.688 3.782-3.774 3.782zm31.85-43.8L7.236.21c-2.586-.806-4.918.797-4.918 3.314v26.358a7.46 7.46 0 0 1 1.459-.145 7.49 7.49 0 0 1 1.462.145V3.543c0-.177 0-.59.645-.59a1.72 1.72 0 0 1 .516.083l52.687 15.791c1.145.344 1.994 1.5 1.994 2.325v33.785c0 .194 0 .586-.645.586-.174 0-.347-.028-.513-.083L47.77 51.804v3.05l11.288 3.395a4.8 4.8 0 0 0 1.352.207c.95.043 1.876-.312 2.553-.98s1.045-1.59 1.014-2.54V21.121c0-2.2-1.793-4.443-4.085-5.128zm-19.7 47.994c-2.086 0-3.774-1.693-3.774-3.782v-35.2c0-2.088 1.693-3.784 3.774-3.784a3.78 3.78 0 0 1 3.774 3.784v35.23c0 2.09-1.688 3.782-3.774 3.782z" stroke="none" fill="#333" fill-rule="nonzero"/></symbol></svg>